<svg xmlns="http://www.w3.org/2000/svg" viewBox="0 0 322 58"><path fill="#28463a" d="M0 0v58h322V0H0z"/><path fill="none" d="M0 0h322v58H0z"/><path d="M23.1 29.7h5.8c2.4 0 5.1.6 5.1 3.6 0 2.4-1.5 3.9-4.6 3.9h-6.2v-7.5h-.1zm-3 10.1h9.3c4.8 0 7.4-2.9 7.4-6.4 0-3.7-2.5-4.7-3.9-5.3 2.4-1.1 2.9-3.1 2.9-4.5 0-3-2.1-5.5-6.1-5.5h-9.5v21.7h-.1zm3-19.1h5.3c3.3 0 4.5 1.1 4.5 3.2 0 2.7-1.7 3.5-4.5 3.5h-5.3v-6.7zm33.2 19.1h-16V18.2h15.8v2.6H43.2v6.6h11.9V30H43.2v7.2h13.1v2.6zm3.7 0h8.7c7.1 0 9.2-6.3 9.2-11.1 0-6.2-3.5-10.5-9.1-10.5H60v21.6zm2.9-19.1h5.5c4 0 6.5 2.7 6.5 8.2 0 5.5-2.5 8.4-6.3 8.4h-5.7V20.7zm32 9h5.8c2.4 0 5.1.6 5.1 3.6 0 2.4-1.5 3.9-4.6 3.9H95v-7.5h-.1zM92 39.8h9.3c4.8 0 7.4-2.9 7.4-6.4 0-3.7-2.5-4.7-3.9-5.3 2.4-1.1 2.9-3.1 2.9-4.5 0-3-2.1-5.5-6.1-5.5H92v21.7zm2.9-19.1h5.3c3.3 0 4.5 1.1 4.5 3.2 0 2.7-1.7 3.5-4.5 3.5h-5.3v-6.7zM124 33.5l2.1 6.3h3.2l-7.8-21.6h-3.3L110 39.8h3l2.3-6.3h8.7zm-7.8-2.6l3.5-9.5h.1l3.2 9.5h-6.8zm10-12.7h17.6v2.6h-7.3v19h-3v-19h-7.3v-2.6zm34.3 0h2.9v21.6h-2.9V29.7h-11.4v10.1h-2.9V18.2h2.9v8.9h11.4v-8.9zm32.3 0h2.8v21.6h-3.2l-11.1-17.5v17.5h-2.8V18.2h3.4l10.8 17.5h.1V18.2zm6.4 0h3.1v3c0 2.3-.7 4.2-3.1 4.7v-1.4c1.6-.2 1.6-2.1 1.6-3.1h-1.6v-3.2zm13.9 0h17.6v2.6h-7.3v19h-2.9v-19h-7.4v-2.6zm28.5 15.3l2.1 6.3h3.2l-7.8-21.6h-3.3l-8.1 21.6h3l2.3-6.3h8.6zm-7.8-2.6l3.5-9.5h.1l3.2 9.5h-6.8zm18.4-1.2h5.8c2.4 0 5.1.6 5.1 3.6 0 2.4-1.5 3.9-4.6 3.9h-6.2v-7.5h-.1zm-2.9 10.1h9.3c4.8 0 7.4-2.9 7.4-6.4 0-3.7-2.5-4.7-3.9-5.3 2.4-1.1 2.9-3.1 2.9-4.5 0-3-2.1-5.5-6.1-5.5h-9.5v21.7h-.1zm2.9-19.1h5.3c3.3 0 4.5 1.1 4.5 3.2 0 2.7-1.7 3.5-4.5 3.5h-5.3v-6.7zM272 37.2h11v2.6h-13.9V18.2h2.9v19zm29.9 2.6h-16V18.2h15.8v2.6h-12.9v6.6h11.9V30h-11.9v7.2h13.1v2.6z" fill="#fff"/></svg>